{"title":"Rake.S02E04.PDTV.XviD-PJA.avi","uid":8150759,"size":540902068,"categoryP":"video","categoryS":"tv_shows","magnet":"?xt=urn:btih:c50e93111b540d19dd3d4f1c4e770e27411bfcee&amp;dn=Rake.S02E04.PDTV.XviD-PJA.avi&amp;tr=udp%3A%2F%2Ftracker.openbittorrent.com%3A80&amp;tr=udp%3A%2F%2Fopen.demonii.com%3A1337&amp;tr=udp%3A%2F%2Ftracker.coppersurfer.tk%3A6969&amp;tr=udp%3A%2F%2Fexodus.desync.com%3A6969","seeders":1,"leechers":0,"uploader":null,"files":1,"time":1361028186,"description":"General\nComplete name                            : Rake.S02E04.PDTV.XviD-PJA.avi\nFormat                                   : AVI\nFormat/Info                              : Audio Video Interleave\nFile size                                : 516 MiB\nDuration                                 : 56mn 37s\nOverall bit rate                         : 1 274 Kbps\n\nVideo\nID                                       : 0\nFormat                                   : xvid\nCodec ID                                 : xvid\nDuration                                 : 56mn 37s\nBit rate                                 : 1 133 Kbps\nWidth                                    : 640 pixels\nHeight                                   : 360 pixels\nDisplay aspect ratio                     : 16:9\nFrame rate                               : 25.000 fps\nBits/(Pixel*Frame)                       : 0.197\nStream size                              : 459 MiB (89%)\n\nAudio\nID                                       : 1\nFormat                                   : MPEG Audio\nFormat version                           : Version 1\nFormat profile                           : Layer 3\nMode                                     : Joint stereo\nMode extension                           : MS Stereo\nCodec ID                                 : 55\nCodec ID/Hint                            : MP3\nDuration                                 : 56mn 37s\nBit rate mode                            : Constant\nBit rate                                 : 128 Kbps\nChannel(s)                               : 2 channels\nSampling rate                            : 48.0 KHz\nCompression mode                         : Lossy\nStream size                              : 51.8 MiB (10%)\nAlignment                                : Aligned on interleaves\nInterleave, duration                     : 24 ms (0.60 video frame)","torrent":{"xt":"urn:btih:c50e93111b540d19dd3d4f1c4e770e27411bfcee","amp;dn":"Rake.S02E04.PDTV.XviD-PJA.avi","amp;tr":["udp%3A%2F%2Ftracker.openbittorrent.com%3A80","udp%3A%2F%2Fopen.demonii.com%3A1337","udp%3A%2F%2Ftracker.coppersurfer.tk%3A6969","udp%3A%2F%2Fexodus.desync.com%3A6969"],"infoHash":"c50e93111b540d19dd3d4f1c4e770e27411bfcee","infoHashBuffer":{"type":"Buffer","data":[197,14,147,17,27,84,13,25,221,61,79,28,78,119,14,39,65,27,252,238]},"announce":[],"urlList":[]}}